<mxfile host="app.diagrams.net" modified="2023-04-13T11:07:07.764Z" agent="Mozilla/5.0 (Macintosh; Intel Mac OS X 10_15_7) AppleWebKit/537.36 (KHTML, like Gecko) Chrome/111.0.0.0 Safari/537.36" version="21.1.7" etag="4WLM82n2emIax29AW1i2" type="github">
  <diagram name="페이지-1" id="7LCuhQ05q7ndOoAk6LWX">
    <mxGraphModel>
      <root>
        <mxCell id="0" />
        <mxCell id="1" parent="0" />
      </root>
    </mxGraphModel>
  </diagram>
</mxfile>
